<?xml version="1.0" encoding="utf-8" ?><svg xmlns="http://www.w3.org/2000/svg" xmlns:xlink="http://www.w3.org/1999/xlink" width="360" height="350" viewBox="335 341 360 350"><path fill="#10B981" d="M400.337 356.212C420.112 353.641 439.97 369.309 450.032 384.996C491.425 384.769 532.818 384.776 574.211 385.015C575.056 383.484 575.948 381.978 576.886 380.501C584.31 368.747 596.186 360.509 609.797 357.675C623.607 354.67 638.046 357.418 649.786 365.286C675.66 382.493 681.249 416.293 663.462 441.14C658.118 448.606 651.18 453.796 645.611 460.775L594.551 525.72C583.824 539.334 571.04 557.134 557.97 568.182C536.545 586.291 500.529 591.668 476.649 574.777C469.85 584.445 457.805 596.031 454.756 606.812C469.575 607.461 485.584 607.117 500.461 607.062L570.546 606.983C572.35 596.551 575.679 588.636 582.848 580.745C592.31 570.243 605.616 564.012 619.742 563.469C633.585 562.951 648.28 568.356 658.428 577.799C668.166 586.998 673.821 599.709 674.132 613.102C674.968 643.524 651.344 667.583 620.91 667.978C599.821 665.919 584.138 658.532 574.355 638.934C533.857 639.585 492.135 638.988 451.499 639.041C435.974 665.568 406.917 676.949 378.593 662.838C366.034 656.644 356.516 645.631 352.208 632.308C347.812 618.818 348.442 603.731 354.788 590.839C360.495 579.243 368.294 575.116 376.021 565.336L429.743 496.432C437.295 486.7 452.228 466.462 460.505 458.646C468.411 451.283 477.896 445.826 488.235 442.693C510.431 435.772 527.679 439.18 547.531 449.535C554.189 440.447 562.049 431.35 569.372 422.735L569.416 416.962C530.997 417.385 491.937 417.078 453.483 416.998C451.243 426.401 449.006 433.411 442.856 441.134C433.957 452.127 421.066 459.148 407.004 460.661C393.444 461.987 379.902 457.961 369.269 449.442C358.515 440.671 351.703 427.973 350.342 414.163C348.979 400.127 353.294 386.129 362.324 375.298C371.968 363.719 385.516 357.603 400.337 356.212ZM404.861 639.535C432.434 634.471 428.717 611.473 428.352 589.613C433.484 580.687 452.218 556.84 460.144 549.911C463.234 547.21 474.216 542.417 478.303 540.622C497.267 561.088 521.852 564.099 543.254 544.563C552.123 536.468 555.037 525.161 562.364 515.751L597.533 470.973C606.537 459.458 615.609 448.005 624.747 436.599C629.431 430.752 637.906 428.493 642.093 422.449C648.43 413.303 645.47 399.031 638.016 391.477C633.572 386.961 627.478 384.454 621.143 384.535C620.493 384.544 619.844 384.572 619.197 384.62C592.318 390.615 596.369 412.86 596.508 434.445C589.094 446.406 578.13 457.362 569.517 468.52C563.082 476.856 555.398 479.881 546.274 484.484C539.201 474.403 531.702 469.406 519.38 467.191C507.069 465.008 494.394 467.795 484.134 474.94C477.716 479.464 474.033 484.97 470.922 492.06C469.338 495.671 467.21 500.093 464.817 503.179C452.923 518.515 440.664 533.59 428.631 548.817C419.177 561.022 409.718 573.207 400.092 585.277C395.094 591.545 387.868 593.517 383.108 599.411C376.516 607.572 376.419 620.572 382.463 628.974C386.53 634.552 392.669 638.261 399.5 639.265C401.173 639.506 403.157 639.545 404.861 639.535ZM406.261 432.705C414.891 431.402 422.157 425.563 425.286 417.415C428.416 409.268 426.927 400.067 421.388 393.321C415.849 386.576 407.113 383.326 398.512 384.811C385.408 387.073 376.568 399.464 378.691 412.591C380.815 425.719 393.112 434.69 406.261 432.705ZM622.743 639.312C635.968 638.616 646.158 627.387 645.572 614.157C644.985 600.927 633.841 590.644 620.606 591.121C607.216 591.604 596.786 602.908 597.379 616.294C597.973 629.68 609.363 640.016 622.743 639.312Z"/></svg>